# xmcd
#
# Track frame offsets: 
#        150
#        3772
#        19900
#        33000
#        43840
#        56355
#        69960
#        82365
#        97037
#        105650
#        119772
#        133075
#        137875
#        149357
#        165602
#        179310
#        190520
#        207642
#        229025
#        241222
#        252100
#        264500
#        274977
#        290980
#        304342
#        316065
#
# Disc length: 4395 seconds
#
# Revision: 1
# Processed by: cddbd v1.5.1PL2 Copyright (c) Steve Scherf et al.
# Submitted via: ExactAudioCopy v0.95b3
#
DISCID=8211291a
DTITLE=Tex Williams - On the Air 1947-1949
DYEAR=1997
DGENRE=Western Swing
TTITLE0=Melody Roundup at the Palace Barn intro and theme: Smoke Smoke S
TTITLE0=moke
TTITLE1=What's the Matter with You
TTITLE2=Texas Playboy Rag
TTITLE3=Don't Telephone, Don't Telegraph
TTITLE4=Spanish Two Step
TTITLE5=The Spanish Fandango
TTITLE6=The Palace Stomp
TTITLE7=Careless Love
TTITLE8=Melody Roundup AFRS sign-off and lead-out
TTITLE9=(Palace Barn blurb &) Don't Come Cryin' to Me
TTITLE10=San Antonio Rose (& Palace Barn blurb)
TTITLE11=Theme: Smoke Smoke Smoke and intro at the Riverside Rancho
TTITLE12=The Covered Wagon Rolled Right Along
TTITLE13=I Found a New Baby
TTITLE14=Brush Those Tears from Your Eyes
TTITLE15=Who Clipped Samson's Hair
TTITLE16=Swanee River
TTITLE17=Palace Barn intro and theme: Smoke Smoke Smoke - Careless Love
TTITLE18=The Caravan Ride
TTITLE19=The Riverside Stomp (with Melody Roundup AFRS voice-over)
TTITLE20=One o'Clock Jump
TTITLE21=Steel Guitar Rag (with Melody Roundup AFRS voice-over)
TTITLE22=Please Don't Leave Me Any More
TTITLE23=Three Way Boogie
TTITLE24=She's a Real Gone Oakie
TTITLE25=South - Sign-off and theme: Smoke Smoke Smoke
EXTD=Subtitle: Western Swing from South California\nNote: The CD's pri
EXTD=nted track listing is not accurate - this is a corrected listing.\n
EXTD=CD: Interstate Music Ltd./Country Routes RFD CD 17 (1997-11-18), 
EXTD=UPC 008637901721.
EXTT0=
EXTT1=
EXTT2=
EXTT3=
EXTT4=
EXTT5=
EXTT6=
EXTT7=
EXTT8=
EXTT9=
EXTT10=
EXTT11=
EXTT12=
EXTT13=
EXTT14=
EXTT15=
EXTT16=
EXTT17=
EXTT18=
EXTT19=
EXTT20=
EXTT21=
EXTT22=
EXTT23=
EXTT24=
EXTT25=
PLAYORDER=
